custom-analysis
version=1
nRows=7
nColumns=42
inDegrees=no

This file contains tibia displacement and acting force.

Units are S.I. units (seconds, meters, Newtons, ...)
Angles are in degrees.

endheader
time	APT	SIT	knee_angle	aACL_R_force	pACL_R_force	aPCL_R_force	pPCL_R_force	aMCL_R_force	mMCL_R_force	pMCL_R_force	aLCL_R_force	mLCL_R_force	pLCL_R_force	aACL_R_length	pACL_R_length	aPCL_R_length	pPCL_R_length	aMCL_R_length	mMCL_R_length	pMCL_R_length	aLCL_R_length	mLCL_R_length	pLCL_R_length	aACL_R_strain	pACL_R_strain	aPCL_R_strain	pPCL_R_strain	aMCL_R_strain	mMCL_R_strain	pMCL_R_strain	aLCL_R_strain	mLCL_R_strain	pLCL_R_strain	femur_lat_meniscii_force_r	femur_lat_meniscii_torque_r	femur_med_meniscii_force_r	femur_med_meniscii_torque_r	femur_lat_tibia_force_r	femur_lat_tibia_torque_r	femur_med_tibia_force_r	femur_med_tibia_torque_r
      0.27191248	      0.00297671	     -0.00015751	     30.00011112	     44.02511007	     25.36398308	     33.17235500	      8.28098475	      0.00000000	      0.00000000	      0.00000000	      5.20304210	      0.00000000	      0.00000000	      0.03409977	      0.02716477	      0.03177629	      0.03033877	      0.05688630	      0.05875872	      0.05787140	      0.05692611	      0.05369844	      0.04998272	      0.07551590	      0.05050803	      0.02190020	      0.00834135	     -0.01965804	     -0.01730588	     -0.04703928	      0.01695166	     -0.04652392	     -0.04508713	     37.91214934	     11.34977744	     86.37374494	     28.98848947	      0.00000000	      0.00000000	     57.87425070	      1.31523800
      0.27543619	      0.00299082	     -0.00016431	     30.00011112	     44.38730842	     25.70236889	     33.14548893	      7.98996326	      0.00000000	      0.00000000	      0.00000000	      4.27253552	      0.00000000	      0.00000000	      0.03411118	      0.02717478	      0.03177766	      0.03033999	      0.05689122	      0.05876324	      0.05787648	      0.05693808	      0.05371097	      0.04999523	      0.07587568	      0.05089511	      0.02194409	      0.00838172	     -0.01957323	     -0.01723029	     -0.04695565	      0.01716556	     -0.04630131	     -0.04484817	     37.60073179	     11.27871474	     87.10084038	     29.20508866	      0.00000000	      0.00000000	     55.15424962	      1.25358440
      0.27928885	      0.00300521	     -0.00016978	     30.00011112	     44.49104747	     25.76549157	     32.94748185	      7.63539656	      0.00000000	      0.00000000	      0.00000000	      3.18495439	      0.00000000	      0.00000000	      0.03412183	      0.02718400	      0.03177708	      0.03033944	      0.05689590	      0.05876753	      0.05788129	      0.05694624	      0.05371965	      0.05000386	      0.07621158	      0.05125165	      0.02192539	      0.00836360	     -0.01949273	     -0.01715848	     -0.04687648	      0.01731131	     -0.04614720	     -0.04468326	     37.43758050	     11.23210143	     87.45531394	     29.35239894	      0.00000000	      0.00000000	     52.79805379	      1.20033930
      0.27967411	      0.00300655	     -0.00017021	     30.00011112	     44.50869696	     25.78134855	     32.87435277	      7.48021571	      0.00000000	      0.00000000	      0.00000000	      2.95137857	      0.00000000	      0.00000000	      0.03412273	      0.02718477	      0.03177693	      0.03033931	      0.05689632	      0.05876793	      0.05788173	      0.05694679	      0.05372025	      0.05000445	      0.07624024	      0.05128137	      0.02192082	      0.00835937	     -0.01948533	     -0.01715185	     -0.04686919	      0.01732118	     -0.04613657	     -0.04467191	     37.44229080	     11.23636083	     87.50069147	     29.37182538	      0.00000000	      0.00000000	     52.60266702	      1.19590867
      0.28030240	      0.00300872	     -0.00017085	     30.00011112	     44.52596296	     25.79238760	     32.82032855	      7.40901832	      0.00000000	      0.00000000	      0.00000000	      2.76263724	      0.00000000	      0.00000000	      0.03412418	      0.02718599	      0.03177663	      0.03033904	      0.05689700	      0.05876855	      0.05788242	      0.05694754	      0.05372108	      0.05000527	      0.07628573	      0.05132841	      0.02191096	      0.00835018	     -0.01947370	     -0.01714146	     -0.04685776	      0.01733461	     -0.04612192	     -0.04465629	     37.44470864	     11.24150808	     87.55648818	     29.39537635	      0.00000000	      0.00000000	     52.29902549	      1.18883236
      0.28165721	      0.00301324	     -0.00017212	     30.00011112	     44.45339619	     25.70090527	     32.68685509	      7.22263229	      0.00000000	      0.00000000	      0.00000000	      2.27518065	      0.00000000	      0.00000000	      0.03412710	      0.02718842	      0.03177590	      0.03033839	      0.05689849	      0.05876993	      0.05788395	      0.05694880	      0.05372248	      0.05000666	      0.07637788	      0.05142265	      0.02188751	      0.00832878	     -0.01944803	     -0.01711836	     -0.04683256	      0.01735702	     -0.04609701	     -0.04462981	     37.46906525	     11.22996975	     87.69537456	     29.44423948	      0.00000000	      0.00000000	     51.64452269	      1.17368347
      0.28389634	      0.00302004	     -0.00017378	     30.00011112	     44.55861151	     25.77948448	     32.62248024	      7.34828206	      0.00000000	      0.00000000	      0.00000000	      2.06124273	      0.00000000	      0.00000000	      0.03413101	      0.02719153	      0.03177458	      0.03033728	      0.05690094	      0.05877222	      0.05788647	      0.05694981	      0.05372371	      0.05000787	      0.07650136	      0.05154296	      0.02184522	      0.00829163	     -0.01940585	     -0.01708005	     -0.04679113	      0.01737512	     -0.04607519	     -0.04460668	     37.53394946	     11.21765231	     87.81324445	     29.50328366	      0.00000000	      0.00000000	     50.61402400	      1.14997155
